<?xml version="1.0" encoding="UTF-8" standalone="no"?>
<!-- Created with Inkscape (http://www.inkscape.org/) -->

<svg
   xml:space="preserve"
   inkscape:version="1.2.2 (b0a8486541, 2022-12-01)"
   sodipodi:docname="icon.svg"
   id="SVGRoot"
   version="1.1"
   viewBox="0 0 256.0 256.0"
   height="256.0px"
   width="256.0px"
   xmlns:inkscape="http://www.inkscape.org/namespaces/inkscape"
   xmlns:sodipodi="http://sodipodi.sourceforge.net/DTD/sodipodi-0.dtd"
   xmlns:xlink="http://www.w3.org/1999/xlink"
   xmlns="http://www.w3.org/2000/svg"
   xmlns:svg="http://www.w3.org/2000/svg"><sodipodi:namedview
     id="namedview14"
     pagecolor="#ffffff"
     bordercolor="#000000"
     borderopacity="0.25"
     inkscape:showpageshadow="2"
     inkscape:pageopacity="0.0"
     inkscape:pagecheckerboard="0"
     inkscape:deskcolor="#d1d1d1"
     inkscape:document-units="px"
     showgrid="true"
     inkscape:zoom="2.8284271"
     inkscape:cx="109.77833"
     inkscape:cy="143.71945"
     inkscape:window-width="1694"
     inkscape:window-height="891"
     inkscape:window-x="0"
     inkscape:window-y="0"
     inkscape:window-maximized="1"
     inkscape:current-layer="layer4"><inkscape:grid
       type="xygrid"
       id="grid20" /></sodipodi:namedview><defs
     id="defs9"><linearGradient
       id="linearGradient6159"
       inkscape:swatch="solid"><stop
         style="stop-color:#003f00;stop-opacity:1;"
         offset="0"
         id="stop6157" /></linearGradient><linearGradient
       inkscape:collect="always"
       id="linearGradient5421"><stop
         style="stop-color:#d6df9b;stop-opacity:0.97459847;"
         offset="0"
         id="stop5417" /><stop
         style="stop-color:#000000;stop-opacity:0.87408346;"
         offset="1"
         id="stop5419" /></linearGradient><linearGradient
       inkscape:collect="always"
       xlink:href="#linearGradient5421"
       id="linearGradient5423"
       x1="205.22382"
       y1="197.50584"
       x2="54.728073"
       y2="45.533127"
       gradientUnits="userSpaceOnUse"
       gradientTransform="matrix(1.0030575,0,0,1.0022396,-3.9169963,-3.8292407)" /><linearGradient
       inkscape:collect="always"
       xlink:href="#linearGradient6159"
       id="linearGradient6161"
       x1="19.451555"
       y1="130.81007"
       x2="237.05181"
       y2="130.81007"
       gradientUnits="userSpaceOnUse"
       gradientTransform="matrix(1.0030575,0,0,1.0022396,-3.9169963,-3.8292407)" /></defs><g
     inkscape:label="Layer 1"
     inkscape:groupmode="layer"
     id="layer1"><rect
       style="display:inline;fill:url(#linearGradient5423);fill-opacity:1;fill-rule:nonzero;stroke:url(#linearGradient6161);stroke-width:1.00265"
       id="rect135"
       width="230.99734"
       height="230.99734"
       x="10.501324"
       y="10.501324"
       ry="40.589504"
       inkscape:label="back_gradient"
       sodipodi:insensitive="true" /></g><g
     inkscape:groupmode="layer"
     id="layer3"
     inkscape:label="Layer 2"
     style="display:inline"><g
       id="g9376"
       style="display:none"
       inkscape:label="g9376"
       transform="matrix(1.0587779,0,0,1,-10.481396,-7.5663261)"><path
         style="fill:#d0d0d0;stroke-width:0.745999"
         d="m 218.80005,227.46684 c 0,-0.15835 0.57469,-0.7589 1.27708,-1.33454 1.15744,-0.94858 1.18326,-0.92161 0.27553,0.28792 -0.95334,1.2703 -1.55261,1.67427 -1.55261,1.04662 z M 73.186179,189.43892 c -0.1922,-0.52691 -0.26311,-33.9023 -0.15758,-74.16754 l 0.19188,-73.209534 0.17874,73.781474 0.17873,73.78149 h 55.456301 55.45631 l 0.19608,-48.61571 0.19607,-48.615701 -0.008,48.806351 -0.008,48.80636 -55.6653,0.19541 c -44.145841,0.15499 -55.737631,-0.003 -56.014771,-0.7626 z m 11.70304,-84.46263 c 0.72646,-0.83886 1.48504,-1.5252 1.68572,-1.5252 0.20068,0 -0.2295,0.68634 -0.95597,1.5252 -0.72646,0.83886 -1.48504,1.5252 -1.68572,1.5252 -0.20069,0 0.2295,-0.68634 0.95597,-1.5252 z m 87.501781,-0.19065 -1.39018,-1.71585 1.64196,1.45274 c 1.54303,1.36522 1.97417,1.97896 1.39018,1.97896 -0.13848,0 -0.87736,-0.77214 -1.64196,-1.71585 z m -63.23729,-2.66858 c 10.93727,-0.11863 28.83462,-0.11863 39.77189,0 10.93726,0.11863 1.98859,0.21568 -19.88594,0.21568 -21.87454,0 -30.823211,-0.0971 -19.88595,-0.21568 z M 37.089979,37.579626 c 0,-0.158358 0.57468,-0.758905 1.27708,-1.334549 1.15744,-0.948575 1.18325,-0.921601 0.27552,0.287924 -0.95333,1.270298 -1.5526,1.67427 -1.5526,1.046625 z m 32.74608,-1.046625 c -0.90772,-1.209525 -0.88191,-1.236499 0.27553,-0.287924 1.21559,0.996237 1.60217,1.622472 1.00155,1.622472 -0.15154,0 -0.72622,-0.600546 -1.27708,-1.334548 z"
         id="path9390" /><path
         style="fill:#a3a3a3;stroke-width:0.745999"
         d="m 89.380089,179.52037 c 0.18628,-0.31458 -0.17327,-0.57195 -0.79901,-0.57195 -0.62574,0 -1.3019,0 -1.50259,0 -0.60949,0 -3.12353,-2.83751 -3.95843,-4.46774 -0.52365,-1.02248 -0.785,-11.97177 -0.785,-32.88737 0,-34.03627 -0.0111,-33.935 4.09751,-37.31229 1.91215,-1.57178 2.46823,-1.59253 42.675971,-1.59253 h 40.73857 l 1.85393,2.08936 c 1.01967,1.14914 1.85393,2.37049 1.85393,2.7141 0,0.34361 0.32464,0.41509 0.72141,0.15883 0.41367,-0.26717 0.53601,0.0389 0.2868,0.7176 -0.23903,0.65092 -0.15317,1.18327 0.1908,1.18299 0.55313,-4.5e-4 0.0276,62.48097 -0.55282,65.71871 -0.12605,0.70321 -0.44999,1.13595 -0.71988,0.96165 -0.57867,-0.37374 -2.25272,1.55658 -1.77912,2.05149 0.17808,0.1861 -0.23525,0.44939 -0.91853,0.58507 -2.76703,0.54949 -81.717301,1.18191 -81.403541,0.65208 z M 115.35667,53.310495 c 14.34889,-0.115624 37.8289,-0.115624 52.17779,0 14.34889,0.115624 2.60889,0.210224 -26.0889,0.210224 -28.69778,0 -40.43779,-0.0946 -26.08889,-0.210224 z m 83.22291,0.0054 c 2.72592,-0.147126 6.99502,-0.146035 9.48687,0.0024 2.49185,0.14846 0.26156,0.268836 -4.95622,0.267503 -5.21778,-0.0013 -7.25658,-0.122802 -4.53065,-0.269928 z"
         id="path9388" /><path
         style="fill:#808080;stroke-width:0.745999"
         d="m 88.355569,179.68725 c -2.4437,-1.02645 -1.98688,-1.54775 0.54732,-0.62457 1.2041,0.43865 2.18928,0.93555 2.18928,1.10424 0,0.4524 -0.88822,0.29672 -2.7366,-0.47967 z m 78.996451,0.0238 c 0.24806,-0.41943 0.77941,-0.7626 1.18077,-0.7626 0.40137,0 0.52681,0.34317 0.27875,0.7626 -0.24806,0.41943 -0.77941,0.7626 -1.18077,0.7626 -0.40137,0 -0.52681,-0.34317 -0.27875,-0.7626 z m 6.93271,-6.77339 c 0,-0.41943 0.3284,-0.97468 0.72976,-1.23391 0.40137,-0.25922 0.72976,-0.12814 0.72976,0.29129 0,0.41943 -0.32839,0.97469 -0.72976,1.23391 -0.40136,0.25922 -0.72976,0.12814 -0.72976,-0.29129 z m -1.29633,-66.27777 -1.66123,-2.82747 1.84367,2.13967 c 1.014,1.17682 1.84365,2.46371 1.84365,2.85975 0,1.12139 -0.24628,0.85738 -2.02609,-2.17195 z"
         id="path9386" /><path
         style="fill:#727272;stroke-width:0.745999"
         d="m 35.692739,120.22827 c -0.0289,-74.084297 0.0284,-77.53882 1.33763,-80.551614 2.13974,-4.924087 5.24901,-5.82934 18.90143,-5.503076 9.78085,0.233741 11.19869,0.436515 13.03336,1.86398 1.13225,0.880939 2.16357,2.33941 2.29182,3.241047 0.12826,0.901637 0.45665,1.639316 0.72976,1.639287 0.27311,-2.9e-5 0.41127,33.6306 0.30703,74.734726 l -0.18954,74.73479 h -15.26186 -15.26185 l -2.31426,2.03495 c -1.27284,1.11922 -2.59079,2.74927 -2.92877,3.62234 -0.33908,0.87589 -0.62807,-33.10684 -0.64475,-75.81643 z m 74.190731,59.67395 c 10.5359,-0.11909 27.77647,-0.11909 38.31237,0 10.5359,0.1191 1.91562,0.21653 -19.15618,0.21653 -21.07181,0 -29.692091,-0.0974 -19.15619,-0.21653 z m 62.21199,-2.8603 c 0.94266,-1.04858 1.87813,-1.9065 2.07881,-1.9065 0.20068,0 -0.40639,0.85792 -1.34905,1.9065 -0.94267,1.04857 -1.87814,1.9065 -2.07882,1.9065 -0.20068,0 0.40639,-0.85793 1.34906,-1.9065 z m 3.25123,-35.46087 c 0,-16.56747 0.0964,-23.34507 0.21421,-15.06134 0.11781,8.28374 0.11781,21.83894 0,30.12268 -0.11781,8.28373 -0.21421,1.50613 -0.21421,-15.06134 z"
         id="path9384" /><path
         style="fill:#4f4f4f;stroke-width:0.745999"
         d="m 42.710589,228.37704 c -0.44412,-0.2869 -1.06946,-0.35244 -1.38965,-0.14564 -0.32019,0.20679 -0.58216,0.0126 -0.58216,-0.43162 0,-0.44418 -0.51106,-0.80761 -1.13568,-0.80761 -0.64606,0 -1.76865,-1.49536 -2.60389,-3.46851 -1.3107,-3.09641 -1.44331,-4.78003 -1.23604,-15.69376 l 0.23217,-12.22526 2.72588,-2.60862 2.72588,-2.60861 h 15.33207 15.33207 l 0.18967,-74.54409 0.18967,-74.544074 0.1788,74.544074 0.17881,74.54409 h 56.191471 56.19146 v 16.36934 16.36936 l 2.25875,2.68833 2.25874,2.68833 -73.11526,0.19795 c -40.213391,0.10887 -73.478631,-0.0368 -73.922761,-0.32368 z M 113.95012,92.203045 c 13.17392,-0.116561 34.51938,-0.116491 47.43436,1.54e-4 12.91497,0.116646 2.1363,0.212014 -23.95259,0.211928 -26.0889,-8.5e-5 -36.65569,-0.09552 -23.48177,-0.212082 z"
         id="path9382" /><path
         style="fill:#373737;stroke-width:0.745999"
         d="m 44.441749,228.97952 c 0.23048,-0.24655 33.56224,-0.48186 74.070571,-0.52291 40.50834,-0.041 73.32313,-0.21575 72.92176,-0.38823 -0.40137,-0.17248 -1.04772,-0.3994 -1.43634,-0.50426 -0.38861,-0.10486 -1.53799,-0.99575 -2.55415,-1.97975 l -1.84759,-1.7891 -0.36488,-65.70094 -0.36488,-65.700931 14.91996,0.22156 c 15.99431,0.237514 17.95051,-0.09353 20.49021,-3.467533 1.41931,-1.885567 1.4279,-1.53908 1.61722,65.305524 0.10472,36.97094 -0.091,67.20113 -0.43506,67.20109 -0.34396,-3e-5 -0.42982,0.53251 -0.19079,1.18345 0.2492,0.67865 0.12687,0.98476 -0.2868,0.71759 -0.39677,-0.25625 -0.76246,-0.1025 -0.81263,0.34169 -0.0501,0.44418 -0.13227,1.23657 -0.18244,1.76085 -0.0501,0.52429 -0.50171,0.99615 -1.00342,1.04858 -0.50171,0.0524 -1.25997,0.13822 -1.68503,0.19065 -0.42505,0.0524 -0.57219,0.43456 -0.32697,0.84919 0.25566,0.43229 -0.0373,0.56013 -0.68669,0.29971 -0.6229,-0.24979 -1.13254,-0.15511 -1.13254,0.21038 0,0.37244 -37.61053,0.776 -85.56429,0.91811 -47.060351,0.13946 -85.375701,0.0519 -85.145221,-0.19472 z"
         id="path9380" /><path
         style="fill:#252525;stroke-width:0.745999"
         d="m 190.66136,228.07952 c -0.77911,-0.66025 -0.92397,-0.91762 -0.32192,-0.57195 0.60205,0.34568 6.34891,0.81679 12.77079,1.04692 l 11.67615,0.41842 -11.35423,0.15353 c -9.39779,0.12708 -11.59832,-0.0533 -12.77079,-1.04692 z m 26.45428,-1.05201 c 1.2811,-0.81629 2.82781,-2.44506 3.43714,-3.61949 0.60933,-1.17444 1.12102,-1.67206 1.13709,-1.10583 0.0376,1.32284 -4.6241,6.21607 -5.91832,6.21233 -0.54184,-0.002 0.063,-0.67072 1.34409,-1.48701 z m 4.78248,-72.84261 c -0.1629,-61.043926 -0.28163,-66.934681 -1.31796,-65.388525 -2.65831,3.966038 -0.22711,3.846119 -68.91797,3.399403 l -63.853941,-0.415261 -2.30624,-2.408623 c -2.89704,-3.025654 -3.4042,-6.223003 -3.04982,-19.227576 0.21821,-8.007391 0.51594,-10.167275 1.64258,-11.916215 2.92944,-4.547506 -0.24252,-4.346227 68.443381,-4.343118 61.87992,0.0028 63.0201,0.02969 65.39362,1.541898 4.76162,3.033724 4.54318,-1.316764 4.3346,86.328777 l -0.18923,79.51702 z"
         id="path9378" /></g></g><g
     inkscape:groupmode="layer"
     id="layer4"
     inkscape:label="Layer 3"
     style="display:inline"><rect
       style="display:inline;mix-blend-mode:normal;fill:#ffffff;fill-opacity:1;fill-rule:nonzero;stroke:none;stroke-width:0.935623;stroke-linecap:round;stroke-linejoin:round;stroke-dasharray:none;stroke-opacity:1"
       id="links"
       width="35"
       height="200"
       x="25"
       y="25"
       ry="16.089045"
       inkscape:label="links" /><rect
       style="display:inline;opacity:1;mix-blend-mode:normal;fill:#ffffff;fill-opacity:1;fill-rule:nonzero;stroke:none;stroke-width:1.119;stroke-dasharray:none;stroke-opacity:1"
       id="rect10053-6"
       width="110"
       height="90"
       x="70"
       y="90"
       ry="7.2400708"
       inkscape:label="mitte" /><rect
       style="display:inline;fill:#ffffff;fill-opacity:1;fill-rule:nonzero;stroke:none;stroke-width:0.951349;stroke-linecap:round;stroke-linejoin:round;stroke-dasharray:none;stroke-opacity:1"
       id="unten"
       width="200"
       height="35"
       x="25"
       y="190"
       ry="17.5"
       inkscape:label="unten" /><rect
       style="display:inline;fill:#ffffff;fill-opacity:1;fill-rule:nonzero;stroke:none;stroke-width:0.935414;stroke-linecap:round;stroke-dasharray:none;stroke-opacity:1;image-rendering:auto"
       id="rechts"
       width="35"
       height="180"
       x="190"
       y="45"
       ry="14.48014"
       inkscape:label="rechts" /><rect
       style="display:inline;fill:#ffffff;fill-opacity:1;fill-rule:nonzero;stroke:none;stroke-width:0.471469;stroke-linecap:round;stroke-linejoin:round;stroke-dasharray:none;stroke-opacity:1"
       id="unten-7"
       width="150"
       height="35"
       x="75.099998"
       y="45"
       ry="17.5"
       inkscape:label="oben" /></g></svg>
